# This file uses centimeters as units for non-parametric coordinates.

mtllib bat2.mtl
g default
v 13.776642 49.166196 0.500000
v 16.357603 49.166196 0.500000
v 13.929760 50.443211 0.500000
v 16.204485 50.443211 0.500000
v 13.929760 50.443211 -0.500000
v 16.204485 50.443211 -0.500000
v 13.776642 49.166196 -0.500000
v 16.357603 49.166196 -0.500000
v 14.528114 50.830197 0.500000
v 15.606124 50.830197 0.500000
v 15.606124 50.830197 -0.500000
v 14.528114 50.830197 -0.500000
v 14.322237 48.504929 -0.500000
v 15.812012 48.504929 -0.500000
v 15.812012 48.504929 0.500000
v 14.322237 48.504929 0.500000
v 16.111324 51.055276 0.500000
v 16.111324 51.055276 -0.500000
v 15.453006 51.719277 -0.500000
v 15.453006 51.719277 0.500000
v 14.022920 51.055276 0.500000
v 14.022920 51.055276 -0.500000
v 14.681232 51.719277 0.500000
v 14.681232 51.719277 -0.500000
v 14.185292 50.075852 -0.890480
v 15.948950 50.075852 -0.890480
v 15.948950 49.247948 -0.890480
v 14.185292 49.247948 -0.890480
v 14.698798 50.533784 -0.890480
v 15.435443 50.533784 -0.890480
v 15.576130 48.782220 -0.890480
v 14.558110 48.782220 -0.890480
v 14.210725 49.306695 0.953372
v 15.923516 49.306695 0.953372
v 15.923516 50.026463 0.953372
v 14.210725 50.026463 0.953372
v 15.424818 50.504391 0.953372
v 14.709421 50.504391 0.953372
v 14.572796 48.830735 0.953372
v 15.561443 48.830735 0.953372
v 16.357603 49.287377 -0.305304
v 16.357603 49.287377 0.305304
v 16.357603 50.322030 -0.305304
v 16.357603 50.322030 0.305304
v 13.776642 49.287377 -0.305304
v 13.776642 49.287377 0.305304
v 13.776642 50.322030 0.305304
v 13.776642 50.322030 -0.305304
v 17.212597 49.584767 -0.305304
v 17.212597 49.584767 0.305304
v 16.826408 50.752291 -0.305304
v 16.826408 50.752291 0.305304
v 12.921646 49.584767 -0.305304
v 12.921646 49.584767 0.305304
v 13.307835 50.752291 0.305304
v 13.307835 50.752291 -0.305304
v 17.314552 49.584767 -0.305304
v 17.314552 49.584767 0.305304
v 16.928363 50.752291 -0.305304
v 16.928363 50.752291 0.305304
v 12.819696 49.584767 -0.305304
v 12.819696 49.584767 0.305304
v 13.205885 50.752291 0.305304
v 13.205885 50.752291 -0.305304
v 17.991165 49.102067 -0.305304
v 17.991165 49.102067 0.305304
v 17.772378 50.187872 -0.305304
v 17.772378 50.187872 0.305304
v 12.143077 49.102067 -0.305304
v 12.143077 49.102067 0.305304
v 12.361864 50.187872 0.305304
v 12.361864 50.187872 -0.305304
v 18.093966 49.102067 -0.305304
v 18.093966 49.102067 0.305304
v 17.875179 50.187872 -0.305304
v 17.875179 50.187872 0.305304
v 12.040274 49.102067 -0.305304
v 12.040274 49.102067 0.305304
v 12.259061 50.187872 0.305304
v 12.259061 50.187872 -0.305304
v 18.804489 49.706914 -0.305304
v 18.804489 49.706914 0.305304
v 18.585702 50.792719 -0.305304
v 18.585702 50.792719 0.305304
v 11.329748 49.706914 -0.305304
v 11.329748 49.706914 0.305304
v 11.548535 50.792719 0.305304
v 11.548535 50.792719 -0.305304
v 18.937817 49.706914 -0.305304
v 18.937817 49.706914 0.305304
v 18.719030 50.792719 -0.305304
v 18.719030 50.792719 0.305304
v 11.196420 49.706914 -0.305304
v 11.196420 49.706914 0.305304
v 11.415207 50.792719 0.305304
v 11.415207 50.792719 -0.305304
v 20.198214 49.131642 -0.305304
v 20.198214 49.131642 0.305304
v 19.792228 50.083315 -0.305304
v 19.792228 50.083315 0.305304
v 9.936023 49.131650 -0.305304
v 9.936023 49.131650 0.305304
v 10.342009 50.083323 0.305304
v 10.342009 50.083323 -0.305304
vt 0.375000 0.000000
vt 0.625000 0.000000
vt 0.375000 0.250000
vt 0.625000 0.250000
vt 0.375000 0.500000
vt 0.625000 0.500000
vt 0.375000 0.750000
vt 0.625000 0.750000
vt 0.375000 1.000000
vt 0.625000 1.000000
vt 0.875000 0.000000
vt 0.875000 0.250000
vt 0.125000 0.000000
vt 0.125000 0.250000
vt 0.375000 0.250000
vt 0.625000 0.250000
vt 0.625000 0.500000
vt 0.375000 0.500000
vt 0.375000 0.750000
vt 0.625000 0.750000
vt 0.625000 1.000000
vt 0.375000 1.000000
vt 0.625000 0.250000
vt 0.625000 0.500000
vt 0.625000 0.500000
vt 0.625000 0.250000
vt 0.375000 0.500000
vt 0.375000 0.250000
vt 0.375000 0.250000
vt 0.375000 0.500000
vt 0.625000 0.500000
vt 0.625000 0.750000
vt 0.375000 0.750000
vt 0.375000 0.500000
vt 0.375000 0.500000
vt 0.625000 0.500000
vt 0.625000 0.750000
vt 0.375000 0.750000
vt 0.625000 0.000000
vt 0.625000 0.250000
vt 0.375000 0.250000
vt 0.375000 0.000000
vt 0.625000 0.250000
vt 0.375000 0.250000
vt 0.375000 1.000000
vt 0.375000 1.000000
vt 0.625000 1.000000
vt 0.625000 1.000000
vt 0.625000 0.000000
vt 0.875000 0.000000
vt 0.875000 0.250000
vt 0.625000 0.250000
vt 0.125000 0.000000
vt 0.375000 0.000000
vt 0.375000 0.250000
vt 0.125000 0.250000
vt 0.625000 0.000000
vt 0.875000 0.000000
vt 0.875000 0.250000
vt 0.625000 0.250000
vt 0.125000 0.000000
vt 0.375000 0.000000
vt 0.375000 0.250000
vt 0.125000 0.250000
vt 0.625000 0.000000
vt 0.875000 0.000000
vt 0.875000 0.250000
vt 0.625000 0.250000
vt 0.125000 0.000000
vt 0.375000 0.000000
vt 0.375000 0.250000
vt 0.125000 0.250000
vt 0.625000 0.000000
vt 0.875000 0.000000
vt 0.875000 0.250000
vt 0.625000 0.250000
vt 0.125000 0.000000
vt 0.375000 0.000000
vt 0.375000 0.250000
vt 0.125000 0.250000
vt 0.625000 0.000000
vt 0.875000 0.000000
vt 0.875000 0.250000
vt 0.625000 0.250000
vt 0.125000 0.000000
vt 0.375000 0.000000
vt 0.375000 0.250000
vt 0.125000 0.250000
vt 0.625000 0.000000
vt 0.875000 0.000000
vt 0.875000 0.250000
vt 0.625000 0.250000
vt 0.125000 0.000000
vt 0.375000 0.000000
vt 0.375000 0.250000
vt 0.125000 0.250000
vt 0.625000 0.000000
vt 0.875000 0.000000
vt 0.875000 0.250000
vt 0.625000 0.250000
vt 0.125000 0.000000
vt 0.375000 0.000000
vt 0.375000 0.250000
vt 0.125000 0.250000
vt 0.625000 0.000000
vt 0.875000 0.000000
vt 0.875000 0.250000
vt 0.625000 0.250000
vt 0.125000 0.000000
vt 0.375000 0.000000
vt 0.375000 0.250000
vt 0.125000 0.250000
vn 0.000000 0.000000 1.000000
vn 0.000000 0.000000 1.000000
vn 0.000000 0.000000 1.000000
vn 0.000000 0.000000 1.000000
vn 0.000000 0.983449 0.181187
vn 0.000000 0.983449 0.181187
vn 0.000000 1.000000 0.000000
vn 0.000000 1.000000 0.000000
vn 0.000000 0.000000 -1.000000
vn 0.000000 0.000000 -1.000000
vn 0.000000 0.000000 -1.000000
vn 0.000000 0.000000 -1.000000
vn 0.000000 -1.000000 0.000000
vn 0.000000 -1.000000 0.000000
vn 0.000000 -0.984290 0.176558
vn 0.000000 -0.984290 0.176559
vn 0.919799 0.392389 0.000000
vn 0.919799 0.392389 0.000000
vn 0.919799 0.392389 0.000000
vn 0.919799 0.392389 0.000000
vn -0.919799 0.392389 0.000000
vn -0.919799 0.392389 0.000000
vn -0.919799 0.392389 0.000000
vn -0.919799 0.392389 0.000000
vn 0.000000 0.000000 1.000000
vn 0.000000 0.000000 1.000000
vn 0.710139 0.704061 0.000000
vn 0.710139 0.704061 0.000000
vn 0.710139 0.704061 0.000000
vn 0.710139 0.704061 0.000000
vn 0.000000 0.000000 -1.000000
vn 0.000000 0.000000 -1.000000
vn -0.710142 0.704058 0.000000
vn -0.710142 0.704058 0.000000
vn -0.710142 0.704058 0.000000
vn -0.710142 0.704058 0.000000
vn 0.000000 0.000000 -1.000000
vn 0.000000 0.000000 -1.000000
vn 0.771347 -0.636415 0.000000
vn 0.747693 -0.610882 0.260343
vn 0.760054 -0.622809 0.185545
vn 0.771347 -0.636415 0.000000
vn 0.000000 0.000000 1.000000
vn 0.000000 0.000000 1.000000
vn -0.747691 -0.610885 0.260340
vn -0.771344 -0.636418 0.000000
vn -0.771344 -0.636418 0.000000
vn -0.760052 -0.622813 0.185542
vn 0.988614 0.150475 0.000000
vn 0.988614 0.150475 0.000000
vn 0.988614 0.150475 0.000000
vn 0.988614 0.150475 0.000000
vn 0.000000 0.000000 -1.000000
vn 0.000000 0.000000 -1.000000
vn 0.000000 0.000000 -1.000000
vn 0.000000 0.000000 -1.000000
vn -0.985492 -0.169722 0.000000
vn -0.985492 -0.169722 0.000000
vn -0.985492 -0.169722 0.000000
vn -0.985492 -0.169722 0.000000
vn 0.000000 0.000000 1.000000
vn 0.000000 0.000000 1.000000
vn 0.000000 0.000000 1.000000
vn 0.000000 0.000000 1.000000
vn -0.988614 0.150473 0.000000
vn -0.988614 0.150473 0.000000
vn -0.988614 0.150473 0.000000
vn -0.988614 0.150473 0.000000
vn 0.000000 0.000000 1.000000
vn 0.000000 0.000000 1.000000
vn 0.000000 0.000000 1.000000
vn 0.000000 0.000000 1.000000
vn 0.985492 -0.169722 0.000000
vn 0.985492 -0.169722 0.000000
vn 0.985492 -0.169722 0.000000
vn 0.985492 -0.169722 0.000000
vn 0.000000 0.000000 -1.000000
vn 0.000000 0.000000 -1.000000
vn 0.000000 0.000000 -1.000000
vn 0.000000 0.000000 -1.000000
vn 0.750679 0.054607 -0.658406
vn 0.693377 -0.189161 -0.695303
vn 0.706838 -0.146658 -0.692005
vn 0.750679 0.054607 -0.658406
vn -0.693381 -0.189163 -0.695299
vn -0.750682 0.054607 -0.658403
vn -0.750682 0.054607 -0.658403
vn -0.706842 -0.146660 -0.692001
vn -0.426348 0.561048 -0.709544
vn -0.426348 0.561048 -0.709544
vn -0.426348 0.561048 -0.709544
vn -0.426348 0.561048 -0.709544
vn 0.000000 0.796507 -0.604629
vn 0.000000 0.796507 -0.604629
vn 0.000000 0.796507 -0.604629
vn 0.000000 0.796507 -0.604629
vn 0.426346 0.561050 -0.709544
vn 0.426346 0.561050 -0.709544
vn 0.426346 0.561050 -0.709544
vn 0.426346 0.561050 -0.709544
vn 0.567594 -0.462543 -0.681095
vn 0.567594 -0.462543 -0.681095
vn 0.000000 -0.815334 -0.578991
vn 0.000000 -0.815334 -0.578991
vn 0.000000 -0.815334 -0.578991
vn 0.000000 -0.815334 -0.578991
vn -0.567597 -0.462547 -0.681090
vn -0.567597 -0.462547 -0.681090
vn 0.774947 0.059425 0.629226
vn 0.774947 0.059425 0.629226
vn 0.774947 0.059425 0.629226
vn 0.774947 0.059425 0.629226
vn -0.774950 0.059425 0.629223
vn -0.774950 0.059425 0.629222
vn -0.774950 0.059425 0.629223
vn -0.774950 0.059425 0.629223
vn 0.446908 0.566860 0.692057
vn 0.446908 0.566860 0.692057
vn 0.446908 0.566860 0.692057
vn 0.446908 0.566860 0.692057
vn 0.000000 0.812062 0.583571
vn 0.000000 0.812062 0.583571
vn -0.446911 0.566859 0.692056
vn -0.446911 0.566858 0.692056
vn -0.446911 0.566858 0.692056
vn -0.446911 0.566858 0.692056
vn -0.577789 -0.461157 0.673420
vn -0.577789 -0.461157 0.673420
vn 0.000000 -0.812062 0.583571
vn 0.000000 -0.812062 0.583571
vn 0.577787 -0.461153 0.673424
vn 0.577787 -0.461153 0.673424
vn 1.000000 0.000000 0.000000
vn 1.000000 0.000000 0.000000
vn 1.000000 0.000000 0.000000
vn 1.000000 0.000000 0.000000
vn 0.928873 0.061526 -0.365254
vn 0.928873 0.061526 -0.365254
vn 0.928873 0.061526 -0.365254
vn 0.928873 0.061526 -0.365254
vn 0.620587 0.784138 0.000000
vn 0.620587 0.784138 0.000000
vn 0.620587 0.784138 0.000000
vn 0.620587 0.784138 0.000000
vn 0.928873 0.061526 0.365254
vn 0.928873 0.061526 0.365254
vn 0.928873 0.061526 0.365254
vn 0.928873 0.061526 0.365254
vn -1.000000 0.000000 0.000000
vn -1.000000 0.000000 0.000000
vn -1.000000 0.000000 0.000000
vn -1.000000 0.000000 0.000000
vn -0.928873 0.061526 0.365254
vn -0.928873 0.061526 0.365254
vn -0.928873 0.061526 0.365254
vn -0.928873 0.061526 0.365254
vn -0.620587 0.784138 0.000000
vn -0.620587 0.784138 0.000000
vn -0.620587 0.784138 0.000000
vn -0.620587 0.784138 0.000000
vn -0.928873 0.061526 -0.365254
vn -0.928873 0.061526 -0.365254
vn -0.928873 0.061526 -0.365254
vn -0.928873 0.061526 -0.365254
vn 0.328522 -0.944496 0.000000
vn 0.328522 -0.944496 0.000000
vn 0.328522 -0.944496 0.000000
vn 0.328522 -0.944496 0.000000
vn 0.000000 0.000000 -1.000000
vn 0.000000 0.000000 -1.000000
vn 0.000000 0.000000 -1.000000
vn 0.000000 0.000000 -1.000000
vn -0.676171 0.736745 0.000000
vn -0.676171 0.736745 0.000000
vn -0.676171 0.736745 0.000000
vn -0.676171 0.736745 0.000000
vn 0.000000 0.000000 1.000000
vn 0.000000 0.000000 1.000000
vn 0.000000 0.000000 1.000000
vn 0.000000 0.000000 1.000000
vn -0.328521 -0.944497 0.000000
vn -0.328521 -0.944497 0.000000
vn -0.328521 -0.944497 0.000000
vn -0.328521 -0.944497 0.000000
vn -0.000000 0.000000 1.000000
vn -0.000000 0.000000 1.000000
vn -0.000000 0.000000 1.000000
vn -0.000000 0.000000 1.000000
vn 0.676169 0.736746 0.000000
vn 0.676169 0.736746 0.000000
vn 0.676169 0.736746 0.000000
vn 0.676169 0.736746 0.000000
vn -0.000000 0.000000 -1.000000
vn -0.000000 0.000000 -1.000000
vn -0.000000 0.000000 -1.000000
vn -0.000000 0.000000 -1.000000
vn 0.000000 -1.000000 0.000000
vn 0.000000 -1.000000 0.000000
vn -0.526930 -0.849908 0.000000
vn -0.526930 -0.849908 0.000000
vn -0.000000 0.000000 -1.000000
vn -0.000000 0.000000 -1.000000
vn 0.000000 1.000000 0.000000
vn 0.000000 1.000000 0.000000
vn 0.512383 0.858757 0.000000
vn 0.512383 0.858757 0.000000
vn -0.000000 0.000000 1.000000
vn -0.000000 0.000000 1.000000
vn 0.000000 -1.000000 0.000000
vn 0.000000 -1.000000 0.000000
vn 0.526931 -0.849908 0.000000
vn 0.526931 -0.849908 0.000000
vn 0.000000 0.000000 1.000000
vn 0.000000 0.000000 1.000000
vn 0.000000 1.000000 0.000000
vn 0.000000 1.000000 0.000000
vn -0.512383 0.858757 0.000000
vn -0.512383 0.858757 0.000000
vn 0.000000 0.000000 -1.000000
vn 0.000000 0.000000 -1.000000
vn -0.580765 -0.814071 0.000000
vn -0.580765 -0.814071 0.000000
vn -0.000000 0.000000 -1.000000
vn -0.000000 0.000000 -1.000000
vn 0.555888 0.831258 0.000000
vn 0.555888 0.831258 0.000000
vn -0.000000 0.000000 1.000000
vn -0.000000 0.000000 1.000000
vn 0.580761 -0.814074 0.000000
vn 0.580761 -0.814074 0.000000
vn 0.000000 0.000000 1.000000
vn 0.000000 0.000000 1.000000
vn -0.555885 0.831259 0.000000
vn -0.555885 0.831259 0.000000
vn 0.000000 0.000000 -1.000000
vn 0.000000 0.000000 -1.000000
vn 0.000000 -1.000000 0.000000
vn 0.000000 -1.000000 0.000000
vn 0.596746 -0.802430 0.000000
vn 0.596746 -0.802430 0.000000
vn 0.000000 0.000000 -1.000000
vn 0.000000 0.000000 -1.000000
vn 0.000000 1.000000 0.000000
vn 0.000000 1.000000 0.000000
vn -0.596746 0.802431 0.000000
vn -0.596746 0.802431 0.000000
vn 0.000000 0.000000 1.000000
vn 0.000000 0.000000 1.000000
vn 0.000000 -1.000000 0.000000
vn 0.000000 -1.000000 0.000000
vn -0.596743 -0.802432 0.000000
vn -0.596743 -0.802432 0.000000
vn -0.000000 0.000000 1.000000
vn -0.000000 0.000000 1.000000
vn 0.000000 1.000000 0.000000
vn 0.000000 1.000000 0.000000
vn 0.596743 0.802432 0.000000
vn 0.596743 0.802432 0.000000
vn 0.000000 0.000000 -1.000000
vn 0.000000 0.000000 -1.000000
vn 0.648210 -0.761462 0.000000
vn 0.648210 -0.761462 0.000000
vn 0.000000 0.000000 -1.000000
vn 0.000000 0.000000 -1.000000
vn -0.648209 0.761462 0.000000
vn -0.648209 0.761462 0.000000
vn 0.000000 0.000000 1.000000
vn 0.000000 0.000000 1.000000
vn -0.648208 -0.761464 0.000000
vn -0.648208 -0.761464 0.000000
vn -0.000000 0.000000 1.000000
vn -0.000000 0.000000 1.000000
vn 0.648208 0.761464 0.000000
vn 0.648208 0.761464 0.000000
vn 0.000000 0.000000 -1.000000
vn 0.000000 0.000000 -1.000000
vn 0.000000 -1.000000 0.000000
vn 0.000000 -1.000000 0.000000
vn -0.381535 -0.924354 0.000000
vn -0.381535 -0.924354 0.000000
vn 0.000000 0.000000 -1.000000
vn 0.000000 0.000000 -1.000000
vn 0.000000 1.000000 0.000000
vn 0.000000 1.000000 0.000000
vn 0.506852 0.862033 0.000000
vn 0.506852 0.862033 0.000000
vn -0.000000 0.000000 1.000000
vn -0.000000 0.000000 1.000000
vn 0.000000 -1.000000 0.000000
vn 0.000000 -1.000000 0.000000
vn 0.381531 -0.924356 0.000000
vn 0.381531 -0.924356 0.000000
vn 0.000000 0.000000 1.000000
vn 0.000000 0.000000 1.000000
vn 0.000000 1.000000 0.000000
vn 0.000000 1.000000 0.000000
vn -0.506848 0.862036 0.000000
vn -0.506848 0.862036 0.000000
vn -0.000000 0.000000 -1.000000
vn -0.000000 0.000000 -1.000000
vn -0.415216 -0.909723 0.000000
vn -0.415216 -0.909723 0.000000
vn 0.000000 0.000000 -1.000000
vn 0.000000 0.000000 -1.000000
vn 0.551434 0.834219 0.000000
vn 0.551434 0.834219 0.000000
vn -0.000000 0.000000 1.000000
vn -0.000000 0.000000 1.000000
vn 0.415212 -0.909725 0.000000
vn 0.415212 -0.909725 0.000000
vn 0.000000 0.000000 1.000000
vn 0.000000 0.000000 1.000000
vn -0.551430 0.834221 0.000000
vn -0.551430 0.834221 0.000000
vn -0.000000 0.000000 -1.000000
vn -0.000000 0.000000 -1.000000
s 1
g pCube81
usemtl lambert23SG
f 33/42/1 34/39/2 35/40/3 36/41/4
s 2
f 9/15/5 10/16/6 11/17/7 12/18/8
s 3
f 25/34/9 26/31/10 27/32/11 28/33/12
s 4
f 13/19/13 14/20/14 15/21/15 16/22/16
s off
f 98/105/17 97/106/18 99/107/19 100/108/20
f 101/109/21 102/110/22 103/111/23 104/112/24
s 1
f 36/41/4 35/40/3 37/43/25 38/44/26
s off
f 17/23/27 18/24/28 19/25/29 20/26/30
s 3
f 26/31/10 25/34/9 29/35/31 30/36/32
s off
f 22/27/33 21/28/34 23/29/35 24/30/36
s 3
f 28/33/12 27/32/11 31/37/37 32/38/38
s 5
f 8/8/39 2/10/40 15/21/41 14/20/42
s 1
f 34/48/2 33/45/1 39/46/43 40/47/44
s 6
f 1/9/45 7/7/46 13/19/47 16/22/48
s off
f 4/4/49 6/6/50 18/24/51 17/23/52
f 6/6/53 11/17/54 19/25/55 18/24/56
f 11/17/57 10/16/58 20/26/59 19/25/60
f 10/16/61 4/4/62 17/23/63 20/26/64
f 5/5/65 3/3/66 21/28/67 22/27/68
f 3/3/69 9/15/70 23/29/71 21/28/72
f 9/15/73 12/18/74 24/30/75 23/29/76
f 12/18/77 5/5/78 22/27/79 24/30/80
s 7
f 6/6/81 8/8/82 27/32/83 26/31/84
s 8
f 7/7/85 5/5/86 25/34/87 28/33/88
s off
f 5/5/89 12/18/90 29/35/91 25/34/92
f 12/18/93 11/17/94 30/36/95 29/35/96
f 11/17/97 6/6/98 26/31/99 30/36/100
s 7
f 8/8/82 14/20/101 31/37/102 27/32/83
s off
f 14/20/103 13/19/104 32/38/105 31/37/106
s 8
f 13/19/107 7/7/85 28/33/88 32/38/108
s off
f 2/2/109 4/4/110 35/40/111 34/39/112
f 3/3/113 1/1/114 33/42/115 36/41/116
f 4/4/117 10/16/118 37/43/119 35/40/120
s 2
f 10/16/6 9/15/5 38/44/121 37/43/122
s off
f 9/15/123 3/3/124 36/41/125 38/44/126
s 6
f 1/9/45 16/22/48 39/46/127 33/45/128
s 4
f 16/22/16 15/21/15 40/47/129 39/46/130
s 5
f 15/21/41 2/10/40 34/48/131 40/47/132
s off
f 2/2/133 8/11/134 41/50/135 42/49/136
f 8/11/137 6/12/138 43/51/139 41/50/140
f 6/12/141 4/4/142 44/52/143 43/51/144
f 4/4/145 2/2/146 42/49/147 44/52/148
f 7/13/149 1/1/150 46/54/151 45/53/152
f 1/1/153 3/3/154 47/55/155 46/54/156
f 3/3/157 5/14/158 48/56/159 47/55/160
f 5/14/161 7/13/162 45/53/163 48/56/164
f 42/49/165 41/50/166 49/58/167 50/57/168
s 9
f 41/50/169 43/51/170 51/59/171 49/58/172
s off
f 43/51/173 44/52/174 52/60/175 51/59/176
s 10
f 44/52/177 42/49/178 50/57/179 52/60/180
s off
f 45/53/181 46/54/182 54/62/183 53/61/184
s 11
f 46/54/185 47/55/186 55/63/187 54/62/188
s off
f 47/55/189 48/56/190 56/64/191 55/63/192
s 12
f 48/56/193 45/53/194 53/61/195 56/64/196
s 13
f 50/57/197 49/58/198 57/66/199 58/65/200
s 9
f 49/58/172 51/59/171 59/67/201 57/66/202
s 14
f 51/59/203 52/60/204 60/68/205 59/67/206
s 10
f 52/60/180 50/57/179 58/65/207 60/68/208
s 15
f 53/61/209 54/62/210 62/70/211 61/69/212
s 11
f 54/62/188 55/63/187 63/71/213 62/70/214
s 16
f 55/63/215 56/64/216 64/72/217 63/71/218
s 12
f 56/64/196 53/61/195 61/69/219 64/72/220
s 13
f 58/65/200 57/66/199 65/74/221 66/73/222
s 9
f 57/66/202 59/67/201 67/75/223 65/74/224
s 14
f 59/67/206 60/68/205 68/76/225 67/75/226
s 10
f 60/68/208 58/65/207 66/73/227 68/76/228
s 15
f 61/69/212 62/70/211 70/78/229 69/77/230
s 11
f 62/70/214 63/71/213 71/79/231 70/78/232
s 16
f 63/71/218 64/72/217 72/80/233 71/79/234
s 12
f 64/72/220 61/69/219 69/77/235 72/80/236
s 17
f 66/73/237 65/74/238 73/82/239 74/81/240
s 9
f 65/74/224 67/75/223 75/83/241 73/82/242
s 18
f 67/75/243 68/76/244 76/84/245 75/83/246
s 10
f 68/76/228 66/73/227 74/81/247 76/84/248
s 19
f 69/77/249 70/78/250 78/86/251 77/85/252
s 11
f 70/78/232 71/79/231 79/87/253 78/86/254
s 20
f 71/79/255 72/80/256 80/88/257 79/87/258
s 12
f 72/80/236 69/77/235 77/85/259 80/88/260
s 17
f 74/81/240 73/82/239 81/90/261 82/89/262
s 9
f 73/82/242 75/83/241 83/91/263 81/90/264
s 18
f 75/83/246 76/84/245 84/92/265 83/91/266
s 10
f 76/84/248 74/81/247 82/89/267 84/92/268
s 19
f 77/85/252 78/86/251 86/94/269 85/93/270
s 11
f 78/86/254 79/87/253 87/95/271 86/94/272
s 20
f 79/87/258 80/88/257 88/96/273 87/95/274
s 12
f 80/88/260 77/85/259 85/93/275 88/96/276
s 21
f 82/89/277 81/90/278 89/98/279 90/97/280
s 9
f 81/90/264 83/91/263 91/99/281 89/98/282
s 22
f 83/91/283 84/92/284 92/100/285 91/99/286
s 10
f 84/92/268 82/89/267 90/97/287 92/100/288
s 23
f 85/93/289 86/94/290 94/102/291 93/101/292
s 11
f 86/94/272 87/95/271 95/103/293 94/102/294
s 24
f 87/95/295 88/96/296 96/104/297 95/103/298
s 12
f 88/96/276 85/93/275 93/101/299 96/104/300
s 21
f 90/97/280 89/98/279 97/106/301 98/105/302
s 9
f 89/98/282 91/99/281 99/107/303 97/106/304
s 22
f 91/99/286 92/100/285 100/108/305 99/107/306
s 10
f 92/100/288 90/97/287 98/105/307 100/108/308
s 23
f 93/101/292 94/102/291 102/110/309 101/109/310
s 11
f 94/102/294 95/103/293 103/111/311 102/110/312
s 24
f 95/103/298 96/104/297 104/112/313 103/111/314
s 12
f 96/104/300 93/101/299 101/109/315 104/112/316
