# Blender 3.5.1
# www.blender.org
mtllib crossstone.mtl
o Object_140
v -2.025846 -0.521765 16.094732
v -2.025846 -0.521765 16.094732
v -2.025846 -0.521765 16.094732
v -1.053610 7.770664 15.568341
v -1.053610 7.770664 15.568341
v -1.053610 7.770664 15.568341
v -1.053610 7.770664 15.568341
v -2.025846 -0.521765 12.043040
v -2.025846 -0.521765 12.043040
v -2.025846 -0.521765 12.043040
v -1.053610 7.946159 13.012796
v -1.053610 7.946159 13.012796
v -1.053610 7.946159 13.012796
v -1.053610 7.946159 13.012796
v 2.025846 -0.521765 16.094732
v 2.025846 -0.521765 16.094732
v 2.025846 -0.521765 16.094732
v 1.053610 7.770664 15.568341
v 1.053610 7.770664 15.568341
v 1.053610 7.770664 15.568341
v 1.053610 7.770664 15.568341
v 2.025846 -0.521765 12.043040
v 2.025846 -0.521765 12.043040
v 2.025846 -0.521765 12.043040
v 1.053610 7.946159 13.012796
v 1.053610 7.946159 13.012796
v 1.053610 7.946159 13.012796
v 1.053610 7.946159 13.012796
v -2.441025 4.126628 16.864265
v -2.441025 4.126628 16.864265
v -2.441025 4.126628 16.864265
v -2.441025 4.126628 16.864265
v -2.687079 7.443926 17.328266
v -2.687079 7.443926 17.328266
v -2.687079 7.443926 17.328266
v -2.687079 7.443926 17.328266
v -2.687079 7.900575 11.429810
v -2.687079 7.900575 11.429810
v -2.687079 7.900575 11.429810
v -2.687079 7.900575 11.429810
v -2.441025 4.416554 11.649338
v -2.441025 4.416554 11.649338
v -2.441025 4.416554 11.649338
v -2.441025 4.416554 11.649338
v 2.687079 7.900575 11.429810
v 2.687079 7.900575 11.429810
v 2.687079 7.900575 11.429810
v 2.687079 7.900575 11.429810
v 2.441025 4.416554 11.649338
v 2.441025 4.416554 11.649338
v 2.441025 4.416554 11.649338
v 2.441025 4.416554 11.649338
v 2.687079 7.443926 17.328266
v 2.687079 7.443926 17.328266
v 2.687079 7.443926 17.328266
v 2.687079 7.443926 17.328266
v 2.441025 4.126628 16.864265
v 2.441025 4.126628 16.864265
v 2.441025 4.126628 16.864265
v 2.441025 4.126628 16.864265
v -0.627108 8.664756 15.137092
v -0.627108 8.664756 15.137092
v -0.627108 8.664756 15.137092
v -0.627108 8.664756 15.137092
v -0.627108 8.778309 13.752501
v -0.627108 8.778309 13.752501
v -0.627108 8.778309 13.752501
v -0.627108 8.778309 13.752501
v 0.627108 8.664756 15.137092
v 0.627108 8.664756 15.137092
v 0.627108 8.664756 15.137092
v 0.627108 8.664756 15.137092
v 0.627108 8.778309 13.752501
v 0.627108 8.778309 13.752501
v 0.627108 8.778309 13.752501
v 0.627108 8.778309 13.752501
v 1.021810 8.201283 15.537744
v 1.021810 8.201283 15.537744
v 1.021810 8.201283 15.537744
v 1.021810 8.201283 15.537744
v -1.021810 8.201283 15.537744
v -1.021810 8.201283 15.537744
v -1.021810 8.201283 15.537744
v -1.021810 8.201283 15.537744
v -1.021810 8.371020 13.052411
v -1.021810 8.371020 13.052411
v -1.021810 8.371020 13.052411
v -1.021810 8.371020 13.052411
v 1.021810 8.371020 13.052411
v 1.021810 8.371020 13.052411
v 1.021810 8.371020 13.052411
v 1.021810 8.371020 13.052411
v -0.627108 13.724206 15.274660
v -0.627108 13.724206 15.274660
v -0.627108 13.724206 15.274660
v -0.627108 13.837759 13.890069
v -0.627108 13.837759 13.890069
v -0.627108 13.837759 13.890069
v 0.627108 13.724206 15.274660
v 0.627108 13.724206 15.274660
v 0.627108 13.724206 15.274660
v 0.627108 13.837759 13.890069
v 0.627108 13.837759 13.890069
v 0.627108 13.837759 13.890069
v 0.627108 11.252067 15.200792
v 0.627108 11.252067 15.200792
v 0.627108 11.252067 15.200792
v 0.627108 11.252067 15.200792
v 0.627108 12.495275 15.246648
v 0.627108 12.495275 15.246648
v 0.627108 12.495275 15.246648
v 0.627108 12.495275 15.246648
v -0.627108 12.495275 15.246648
v -0.627108 12.495275 15.246648
v -0.627108 12.495275 15.246648
v -0.627108 12.495275 15.246648
v -0.627108 11.252067 15.200791
v -0.627108 11.252067 15.200791
v -0.627108 11.252067 15.200791
v -0.627108 11.252067 15.200791
v -0.627108 11.365621 13.816201
v -0.627108 11.365621 13.816201
v -0.627108 11.365621 13.816201
v -0.627108 11.365621 13.816201
v -0.627108 12.501830 13.816201
v -0.627108 12.501830 13.816201
v -0.627108 12.501830 13.816201
v -0.627108 12.501830 13.816201
v 0.627108 12.501831 13.816200
v 0.627108 12.501831 13.816200
v 0.627108 12.501831 13.816200
v 0.627108 12.501831 13.816200
v 0.627108 11.365620 13.816201
v 0.627108 11.365620 13.816201
v 0.627108 11.365620 13.816201
v 0.627108 11.365620 13.816201
v 0.627107 11.148064 15.905956
v 0.627107 11.148064 15.905956
v 0.627107 11.148064 15.905956
v 0.627107 12.437128 16.823076
v 0.627107 12.437128 16.823076
v 0.627107 12.437128 16.823076
v -0.627109 12.437128 16.823076
v -0.627109 12.437128 16.823076
v -0.627109 12.437128 16.823076
v -0.627109 11.148064 15.905954
v -0.627109 11.148064 15.905954
v -0.627109 11.148064 15.905954
v -0.627109 11.364779 12.901488
v -0.627109 11.364779 12.901488
v -0.627109 11.364779 12.901488
v -0.627109 12.562131 12.335931
v -0.627109 12.562131 12.335931
v -0.627109 12.562131 12.335931
v 0.627108 12.562132 12.335930
v 0.627108 12.562132 12.335930
v 0.627108 12.562132 12.335930
v 0.627108 11.364779 12.901488
v 0.627108 11.364779 12.901488
v 0.627108 11.364779 12.901488
vn -0.1090 0.9913 0.0741
vn -0.1089 0.9913 0.0741
vn -0.0000 0.9996 -0.0288
vn 0.1090 0.9913 0.0741
vn 0.1089 0.9913 0.0741
vn -0.0000 0.9832 0.1825
vn -0.0000 -1.0000 -0.0000
vn -0.0000 0.6540 0.7565
vn -0.0000 -0.1633 0.9866
vn -0.0000 -0.1385 0.9904
vn 0.9963 -0.0862 -0.0027
vn 0.9963 -0.0862 -0.0026
vn 0.9974 -0.0716 -0.0050
vn 0.9974 -0.0720 -0.0048
vn -0.0000 -0.0795 -0.9968
vn -0.0000 -0.0629 -0.9980
vn -0.9963 -0.0863 -0.0028
vn -0.9963 -0.0862 -0.0027
vn -0.9974 -0.0719 -0.0048
vn -0.9974 -0.0720 -0.0049
vn -0.9974 -0.0720 -0.0048
vn -0.0000 -0.0228 0.9997
vn -0.0000 0.8644 -0.5029
vn 0.7482 0.6617 0.0484
vn -0.7482 0.6617 0.0484
vn -0.9972 0.0740 0.0051
vn -0.9972 0.0742 0.0051
vn 0.9972 0.0742 0.0051
vn 0.9972 0.0740 0.0051
vn -0.0000 0.0928 -0.9957
vn -0.0000 0.0709 0.9975
vn -0.0000 0.9967 0.0817
vn -0.0000 0.0552 -0.9985
vn 1.0000 -0.0000 -0.0000
vn -1.0000 -0.0000 -0.0000
vn -0.0000 0.0246 -0.9997
vn -0.0000 -1.0000 0.0009
vn -0.0000 -0.0246 0.9997
vn -0.0000 -0.5797 0.8148
vn -0.0000 -0.9893 -0.1459
vn -0.0000 0.9993 0.0369
vn -0.0000 -0.4271 -0.9042
vn -0.0000 0.9992 0.0407
vt 0.375188 0.600086
vt 0.375188 0.600086
vt 0.375188 0.600086
vt 0.372514 0.067435
vt 0.372514 0.067435
vt 0.307623 0.985286
vt 0.307623 0.985286
vt 0.154640 0.591833
vt 0.154640 0.591833
vt 0.154640 0.591833
vt 0.233880 0.051633
vt 0.233880 0.051633
vt 0.121545 0.974143
vt 0.121545 0.974143
vt 0.265260 0.736498
vt 0.265260 0.736498
vt 0.265260 0.736498
vt 0.256637 0.939648
vt 0.256637 0.939648
vt 0.256637 0.939648
vt 0.256637 0.939648
vt 0.204429 0.716872
vt 0.204429 0.716872
vt 0.204429 0.716872
vt 0.179405 0.923329
vt 0.179405 0.923329
vt 0.179405 0.923329
vt 0.179405 0.923329
vt 0.426586 0.347619
vt 0.426586 0.347619
vt 0.458608 0.826915
vt 0.458608 0.826915
vt 0.458609 0.167494
vt 0.458609 0.167494
vt 0.398487 0.977545
vt 0.398487 0.977545
vt 0.138456 0.130707
vt 0.138456 0.130707
vt 0.007724 0.944809
vt 0.007724 0.944809
vt 0.143304 0.321273
vt 0.143304 0.321273
vt 0.000109 0.773385
vt 0.000109 0.773385
vt 0.171648 0.879650
vt 0.171648 0.879650
vt 0.171648 0.879650
vt 0.171648 0.879650
vt 0.175303 0.805702
vt 0.175303 0.805702
vt 0.175303 0.805702
vt 0.175303 0.805702
vt 0.279106 0.883158
vt 0.279106 0.883158
vt 0.279106 0.883158
vt 0.279106 0.883158
vt 0.287430 0.818146
vt 0.287430 0.818146
vt 0.287430 0.818146
vt 0.287430 0.818146
vt 0.555903 0.525922
vt 0.352182 0.009415
vt 0.509232 0.899226
vt 0.270172 0.999891
vt 0.469966 0.476619
vt 0.277083 0.000109
vt 0.165382 0.996446
vt 0.758049 0.985471
vt 0.603134 0.920348
vt 0.241842 0.966568
vt 0.241842 0.966568
vt 0.603134 0.920348
vt 0.197124 0.963937
vt 0.689822 0.945234
vt 0.197124 0.963937
vt 0.689822 0.945234
vt 0.250937 0.949843
vt 0.250937 0.949843
vt 0.250937 0.949843
vt 0.250937 0.949843
vt 0.371910 0.043864
vt 0.371910 0.043864
vt 0.298383 0.993876
vt 0.298383 0.993876
vt 0.237082 0.028547
vt 0.237082 0.028547
vt 0.134399 0.986178
vt 0.134399 0.986178
vt 0.183071 0.939496
vt 0.183071 0.939496
vt 0.183071 0.939496
vt 0.183071 0.939496
vt 0.718158 0.203492
vt 0.723984 0.477480
vt 0.723984 0.477480
vt 0.632221 0.154188
vt 0.827245 0.486391
vt 0.827245 0.486391
vt 0.743608 0.545424
vt 0.743608 0.545424
vt 0.743608 0.545424
vt 0.787604 0.554340
vt 0.787604 0.554340
vt 0.787604 0.554340
vt 0.648028 0.697909
vt 0.648028 0.697909
vt 0.648028 0.697909
vt 0.648028 0.697909
vt 0.694402 0.597943
vt 0.694402 0.597943
vt 0.694402 0.597943
vt 0.694402 0.597943
vt 0.679095 0.281973
vt 0.679095 0.281973
vt 0.653480 0.510668
vt 0.653480 0.510668
vt 0.638448 0.360836
vt 0.638448 0.360836
vt 0.552816 0.705456
vt 0.552816 0.705456
vt 0.552511 0.311532
vt 0.552511 0.311532
vt 0.858481 0.836172
vt 0.858481 0.836172
vt 0.586955 0.238187
vt 0.586955 0.238187
vt 0.894312 0.584978
vt 0.894312 0.584978
vt 0.799168 0.638535
vt 0.799168 0.638535
vt 0.799168 0.638535
vt 0.799168 0.638535
vt 0.782032 0.750393
vt 0.782032 0.750393
vt 0.782032 0.750393
vt 0.782032 0.750393
vt 0.612749 0.656704
vt 0.612749 0.656704
vt 0.612749 0.656704
vt 0.611634 0.601171
vt 0.611634 0.601171
vt 0.611634 0.601171
vt 0.779095 0.333515
vt 0.550801 0.570616
vt 0.550801 0.570616
vt 0.680815 0.388926
vt 0.547543 0.668980
vt 0.547543 0.668980
vt 0.493438 0.283857
vt 0.917224 0.782985
vt 0.917224 0.782985
vt 0.493227 0.189421
vt 0.947519 0.680179
vt 0.947519 0.680179
vt 0.877823 0.697044
vt 0.877823 0.697044
vt 0.877823 0.697044
vt 0.849022 0.733454
vt 0.849022 0.733454
vt 0.849022 0.733454
s 1
usemtl Material.018
f 34/34/1 5/5/1 12/12/2 38/38/1
f 40/40/3 14/14/3 26/26/3 46/46/3
f 47/47/4 27/27/5 20/20/4 55/55/4
f 54/54/6 19/19/6 7/7/6 36/36/6
f 9/9/7 22/22/7 15/15/7 2/2/7
f 84/84/8 78/78/8 70/70/8 64/64/8
f 16/16/9 57/57/9 31/31/9 3/3/9
f 58/58/10 53/53/10 35/35/10 32/32/10
f 24/24/11 51/51/11 59/59/12 17/17/11
f 52/52/13 48/48/14 56/56/14 60/60/14
f 10/10/15 43/43/15 49/49/15 23/23/15
f 44/44/16 39/39/16 45/45/16 50/50/16
f 1/1/17 30/30/18 42/42/18 8/8/18
f 29/29/19 33/33/20 37/37/21 41/41/21
f 115/115/22 109/109/22 99/99/22 94/94/22
f 90/90/23 88/88/23 67/67/23 73/73/23
f 79/79/24 91/91/24 75/75/24 71/71/24
f 86/86/25 82/82/25 62/62/25 66/66/25
f 11/11/26 4/4/26 81/81/26 85/85/27
f 21/21/28 28/28/28 92/92/28 80/80/29
f 25/25/30 13/13/30 87/87/30 89/89/30
f 6/6/31 18/18/31 77/77/31 83/83/31
f 103/103/32 98/98/32 95/95/32 100/100/32
f 130/130/33 128/128/33 97/97/33 102/102/33
f 112/112/34 132/132/34 104/104/34 101/101/34
f 125/125/35 113/113/35 93/93/35 96/96/35
f 65/65/35 61/61/35 117/117/35 121/121/35
f 121/121/35 117/117/35 113/113/35 125/125/35
f 72/72/34 76/76/34 136/136/34 108/108/34
f 108/108/34 136/136/34 132/132/34 112/112/34
f 74/74/36 68/68/36 124/124/36 134/134/36
f 133/133/37 123/123/37 150/150/37 158/158/37
f 63/63/38 69/69/38 105/105/38 119/119/38
f 114/114/35 118/118/35 146/146/35 143/143/35
f 147/147/39 137/137/39 140/140/39 144/144/39
f 120/120/40 106/106/40 138/138/40 148/148/40
f 107/107/34 111/111/34 142/142/34 139/139/34
f 110/110/41 116/116/41 145/145/41 141/141/41
f 159/159/42 151/151/42 154/154/42 156/156/42
f 127/127/43 129/129/43 155/155/43 153/153/43
f 131/131/34 135/135/34 160/160/34 157/157/34
f 122/122/35 126/126/35 152/152/35 149/149/35
